<?xml version="1.0" encoding="UTF-8"?>
<svg id="_レイヤー_2" data-name="レイヤー 2" xmlns="http://www.w3.org/2000/svg" viewBox="0 0 17.8 17.8">
  <defs>
    <style>
      .cls-1 {
        fill: #d4feff;
      }

      .cls-2 {
        fill: #1200ff;
      }
    </style>
  </defs>
  <g id="_実デザイン" data-name="実デザイン">
    <g>
      <g>
        <polygon class="cls-2" points="6.94 14.69 3.09 15.23 3.71 11.48 .61 9.15 3.69 6.94 3.15 3.09 6.89 3.71 9.23 .61 11.44 3.69 15.28 3.15 14.67 6.89 17.77 9.23 14.69 11.44 15.23 15.28 11.48 14.67 9.19 17.72 6.94 14.69"/>
        <path d="M9.19.74l2.21,2.98.04.05h.06s3.67-.55,3.67-.55l-.54,3.67v.06s.04.04.04.04l2.98,2.21-2.98,2.21-.05.04v.06s.55,3.67.55,3.67l-3.67-.54h-.06s-.04.04-.04.04l-2.21,2.98-2.21-2.98-.04-.05h-.06s-3.67.55-3.67.55l.54-3.67v-.06s-.04-.04-.04-.04l-2.98-2.21,2.98-2.21.05-.04v-.06s-.55-3.67-.55-3.67l3.67.54h.06s.04-.04.04-.04l2.21-2.98M9.19.58l-2.29,3.08-3.8-.56.56,3.8-3.08,2.29,3.08,2.29-.56,3.8,3.8-.56,2.29,3.08,2.29-3.08,3.8.56-.56-3.8,3.08-2.29-3.08-2.29.56-3.8-3.8.56-2.29-3.08h0Z"/>
      </g>
      <g>
        <polygon class="cls-1" points="6.37 14.03 2.64 14.58 3.19 10.86 .17 8.61 3.19 6.37 2.64 2.64 6.37 3.19 8.61 .17 10.86 3.19 14.58 2.64 14.03 6.37 17.06 8.61 14.03 10.86 14.58 14.58 10.86 14.03 8.61 17.06 6.37 14.03"/>
        <path d="M8.61.34l2.13,2.87.07.1.12-.02,3.53-.52-.52,3.53-.02.12.1.07,2.87,2.13-2.87,2.13-.1.07.02.12.52,3.53-3.53-.52-.12-.02-.07.1-2.13,2.87-2.13-2.87-.07-.1-.12.02-3.53.52.52-3.53.02-.12-.1-.07L.34,8.61l2.87-2.13.1-.07-.02-.12-.52-3.53,3.53.52.12.02.07-.1L8.61.34M8.61,0l-2.29,3.08-3.8-.56.56,3.8-3.08,2.29,3.08,2.29-.56,3.8,3.8-.56,2.29,3.08,2.29-3.08,3.8.56-.56-3.8,3.08-2.29-3.08-2.29.56-3.8-3.8.56-2.29-3.08h0Z"/>
      </g>
    </g>
  </g>
</svg>