<?xml version="1.0" encoding="UTF-8"?>
<svg id="_レイヤー_2" data-name="レイヤー 2" xmlns="http://www.w3.org/2000/svg" viewBox="0 0 9.6 7.4">
  <defs>
    <style>
      .cls-1 {
        fill: #d4feff;
      }

      .cls-2 {
        fill: #1200ff;
      }
    </style>
  </defs>
  <g id="_実データ" data-name="実データ">
    <g>
      <g>
        <g>
          <polygon class="cls-2" points="5.94 6.35 4.64 6.53 4.85 5.27 3.8 4.48 4.84 3.75 4.66 2.44 5.92 2.66 6.71 1.61 7.45 2.65 8.75 2.47 8.53 3.72 9.59 4.52 8.54 5.25 8.72 6.55 7.47 6.34 6.69 7.36 5.94 6.35"/>
          <path d="M6.69,1.68l.73.98.02.02h.03s1.22-.18,1.22-.18l-.18,1.21v.03s.02.02.02.02l.99.73-.99.73-.02.02v.03s.18,1.21.18,1.21l-1.22-.18h-.03s-.02.02-.02.02l-.73.98-.73-.98-.02-.02h-.03s-1.22.18-1.22.18l.18-1.21v-.03s-.02-.02-.02-.02l-.99-.73.99-.73.02-.02v-.03s-.18-1.21-.18-1.21l1.22.18h.03s.02-.02.02-.02l.73-.98M6.69,1.6l-.77,1.04-1.28-.19.19,1.28-1.04.77,1.04.77-.19,1.28,1.28-.19.77,1.04.77-1.04,1.28.19-.19-1.28,1.04-.77-1.04-.77.19-1.28-1.28.19-.77-1.04h0Z"/>
        </g>
        <g>
          <polygon class="cls-1" points="5.75 6.14 4.45 6.32 4.66 5.07 3.62 4.28 4.65 3.55 4.47 2.25 5.72 2.46 6.52 1.42 7.25 2.45 8.55 2.27 8.33 3.52 9.38 4.32 8.34 5.05 8.52 6.35 7.27 6.13 6.5 7.16 5.75 6.14"/>
          <path d="M6.5,1.48l.73.98.02.02h.03s1.21-.18,1.21-.18l-.18,1.21v.03s.02.02.02.02l.98.73-.98.73-.02.02v.03s.18,1.21.18,1.21l-1.21-.18h-.03s-.02.02-.02.02l-.73.98-.73-.98-.02-.02h-.03s-1.21.18-1.21.18l.18-1.21v-.03s-.02-.02-.02-.02l-.98-.73.98-.73.02-.02v-.03s-.18-1.21-.18-1.21l1.21.18h.03s.02-.02.02-.02l.73-.98M6.5,1.4l-.77,1.04-1.28-.19.19,1.28-1.04.77,1.04.77-.19,1.28,1.28-.19.77,1.04.77-1.04,1.28.19-.19-1.28,1.04-.77-1.04-.77.19-1.28-1.28.19-.77-1.04h0Z"/>
        </g>
      </g>
      <g>
        <g>
          <polygon class="cls-2" points="1.45 3.04 .64 3.15 .78 2.39 .13 1.89 .77 1.45 .67 .64 1.43 .79 1.93 .14 2.36 .78 3.18 .67 3.03 1.43 3.69 1.93 3.04 2.37 3.15 3.18 2.39 3.03 1.91 3.66 1.45 3.04"/>
          <path d="M1.91.2l.44.59.02.02h.03s.72-.11.72-.11l-.11.72v.03s.02.02.02.02l.59.44-.59.44-.02.02v.03s.11.72.11.72l-.72-.11h-.03s-.02.02-.02.02l-.44.59-.44-.59-.02-.02h-.03s-.72.11-.72.11l.11-.72v-.03s-.02-.02-.02-.02l-.59-.44.59-.44.02-.02v-.03s-.11-.72-.11-.72l.72.11h.03s.02-.02.02-.02l.44-.59M1.91.12l-.48.64-.79-.12.12.79L.12,1.91l.64.48-.12.79.79-.12.48.64.48-.64.79.12-.12-.79.64-.48-.64-.48.12-.79-.79.12L1.91.12h0Z"/>
        </g>
        <g>
          <polygon class="cls-1" points="1.34 2.94 .52 3.05 .67 2.28 .02 1.78 .66 1.34 .55 .52 1.32 .67 1.82 .01 2.26 .66 3.08 .55 2.93 1.32 3.59 1.82 2.94 2.26 3.05 3.08 2.28 2.93 1.8 3.56 1.34 2.94"/>
          <path d="M1.8.08l.44.59.02.02h.03s.73-.11.73-.11l-.11.73v.03s.02.02.02.02l.59.44-.59.44-.02.02v.03s.11.73.11.73l-.73-.11h-.03s-.02.02-.02.02l-.44.59-.44-.59-.02-.02h-.03s-.73.11-.73.11l.11-.73v-.03s-.02-.02-.02-.02L.08,1.8l.59-.44.02-.02v-.03s-.11-.73-.11-.73l.73.11h.03s.02-.02.02-.02L1.8.08M1.8,0l-.48.64-.79-.12.12.79-.64.48.64.48-.12.79.79-.12.48.64.48-.64.79.12-.12-.79.64-.48-.64-.48.12-.79-.79.12-.48-.64h0Z"/>
        </g>
      </g>
    </g>
  </g>
</svg>