<?xml version="1.0" encoding="UTF-8"?>
<svg id="_レイヤー_2" data-name="レイヤー 2" xmlns="http://www.w3.org/2000/svg" viewBox="0 0 12.2 8.9">
  <defs>
    <style>
      .cls-1 {
        fill: #fffc80;
      }

      .cls-2 {
        fill: #d4feff;
      }

      .cls-3 {
        fill: #1200ff;
      }
    </style>
  </defs>
  <g id="_実データ" data-name="実データ">
    <g>
      <g>
        <g>
          <polygon class="cls-3" points="2.65 5.61 1.17 5.81 1.42 4.39 .23 3.49 1.41 2.66 1.2 1.18 2.63 1.42 3.53 .24 4.36 1.41 5.84 1.21 5.6 2.63 6.79 3.53 5.61 4.36 5.81 5.84 4.39 5.6 3.51 6.76 2.65 5.61"/>
          <path d="M3.51.31l.84,1.12.02.02h.03s1.39-.21,1.39-.21l-.2,1.38v.03s.02.02.02.02l1.12.83-1.12.83-.02.02v.03s.21,1.38.21,1.38l-1.39-.2h-.03s-.02.02-.02.02l-.84,1.12-.84-1.12-.02-.02h-.03s-1.39.21-1.39.21l.2-1.38v-.03s-.02-.02-.02-.02l-1.12-.83,1.12-.83.02-.02v-.03s-.21-1.38-.21-1.38l1.39.2h.03s.02-.02.02-.02l.84-1.12M3.51.22l-.88,1.18-1.45-.21.21,1.45L.21,3.51l1.18.87-.21,1.45,1.45-.21.88,1.18.88-1.18,1.45.21-.21-1.45,1.18-.87-1.18-.87.21-1.45-1.45.21L3.51.22h0Z"/>
        </g>
        <g>
          <polygon class="cls-2" points="2.44 5.39 .96 5.59 1.2 4.17 .01 3.27 1.19 2.43 .99 .96 2.41 1.2 3.31 .02 4.15 1.19 5.63 .99 5.38 2.41 6.57 3.31 5.39 4.14 5.6 5.62 4.17 5.38 3.29 6.54 2.44 5.39"/>
          <path d="M3.29.08l.84,1.12.02.02h.03s1.39-.21,1.39-.21l-.2,1.38v.03s.02.02.02.02l1.12.83-1.12.83-.02.02v.03s.21,1.38.21,1.38l-1.39-.2h-.03s-.02.02-.02.02l-.84,1.12-.84-1.12-.02-.02h-.03s-1.39.21-1.39.21l.2-1.38v-.03s-.02-.02-.02-.02L.08,3.29l1.12-.83.02-.02v-.03s-.21-1.38-.21-1.38l1.39.2h.03s.02-.02.02-.02L3.29.08M3.29,0l-.88,1.18-1.45-.21.21,1.45-1.18.87,1.18.87-.21,1.45,1.45-.21.88,1.18.88-1.18,1.45.21-.21-1.45,1.18-.87-1.18-.87.21-1.45-1.45.21-.88-1.18h0Z"/>
        </g>
      </g>
      <g>
        <polygon class="cls-1" points="9.14 7.86 7.91 8.18 8.3 7.04 7.21 6.39 8.28 5.86 7.96 4.62 9.09 5.01 9.74 3.91 10.26 4.99 11.49 4.67 11.1 5.81 12.19 6.46 11.12 6.99 11.44 8.23 10.31 7.83 9.7 8.87 9.14 7.86"/>
        <path d="M9.72,3.95l.52,1.04v.02s.03,0,.03,0l1.17-.32-.36,1.11v.02s.01.01.01.01l1.05.61-1.03.53h-.02s0,.03,0,.03l.31,1.18-1.1-.37h-.02s-.01.01-.01.01l-.58,1.01-.55-1v-.02s-.03,0-.03,0l-1.17.32.36-1.11v-.02s-.01-.01-.01-.01l-1.05-.61,1.03-.53h.02s0-.03,0-.03l-.31-1.18,1.1.37h.02s.01-.01.01-.01l.61-1.06M9.73,3.9l-.63,1.1-1.14-.38.32,1.23-1.08.55,1.09.64-.38,1.16,1.22-.33.57,1.04.6-1.05,1.14.38-.32-1.23,1.08-.55-1.09-.64.38-1.16-1.22.33-.54-1.09h0Z"/>
      </g>
    </g>
  </g>
</svg>