<?xml version="1.0" encoding="UTF-8"?>
<svg id="_レイヤー_2" data-name="レイヤー 2" xmlns="http://www.w3.org/2000/svg" viewBox="0 0 10.55 5.65">
  <defs>
    <style>
      .cls-1 {
        fill: #fff;
        stroke: #000;
        stroke-miterlimit: 10;
        stroke-width: .1px;
      }

      .cls-2 {
        fill: #fef400;
      }
    </style>
  </defs>
  <g id="_実データ" data-name="実データ">
    <g>
      <g>
        <ellipse class="cls-1" cx="1.69" cy="3.1" rx="1.64" ry="2.5"/>
        <ellipse class="cls-1" cx="4.51" cy="3.1" rx="1.64" ry="2.5"/>
        <ellipse cx="3.92" cy="3.32" rx=".94" ry="1.26"/>
        <ellipse cx="1.09" cy="3.32" rx=".94" ry="1.26"/>
      </g>
      <g>
        <path class="cls-2" d="M8.55,4.06c-.17-1.59-.38-1.75-2-1.93,1.69-.15,1.84-.31,2.02-2.12.13,1.81.28,1.98,1.97,2.17-1.61.14-1.82.29-2,1.88Z"/>
        <path d="M8.55.46c.16,1.27.4,1.52,1.6,1.69-1.2.17-1.44.43-1.6,1.69-.16-1.27-.4-1.52-1.6-1.69,1.2-.17,1.44-.43,1.6-1.69M8.55,0c-.18,1.8-.33,1.96-2,2.15,1.67.19,1.82.35,2,2.15.18-1.8.33-1.96,2-2.15-1.67-.19-1.82-.35-2-2.15h0Z"/>
      </g>
    </g>
  </g>
</svg>