<?xml version="1.0" encoding="UTF-8"?>
<svg id="_レイヤー_2" data-name="レイヤー 2" xmlns="http://www.w3.org/2000/svg" viewBox="0 0 7.8 9.8">
  <defs>
    <style>
      .cls-1 {
        fill: #fef400;
      }
    </style>
  </defs>
  <g id="_実データ" data-name="実データ">
    <g>
      <g>
        <path class="cls-1" d="M4.2,6.97c-.32-2.81-.65-3.08-3.6-3.4C3.63,3.3,3.9,3.03,4.22,0c.28,3.03.55,3.3,3.57,3.62-2.95.27-3.28.53-3.6,3.35Z"/>
        <path d="M4.2.45c.3,2.49.66,2.86,3.15,3.15-2.49.3-2.86.66-3.15,3.15-.3-2.49-.66-2.86-3.15-3.15,2.49-.3,2.86-.66,3.15-3.15M4.2,0c-.32,3.01-.59,3.28-3.6,3.6,3.01.32,3.28.59,3.6,3.6.32-3.01.59-3.28,3.6-3.6-3.01-.32-3.28-.59-3.6-3.6h0Z"/>
      </g>
      <g>
        <path class="cls-1" d="M2.15,9.57c-.19-1.61-.41-1.76-2.15-1.95,1.81-.15,1.98-.31,2.17-2.12.15,1.82.31,1.98,2.12,2.17-1.74.14-1.96.29-2.15,1.9Z"/>
        <path d="M2.15,5.93c.17,1.29.43,1.55,1.72,1.72-1.29.17-1.55.43-1.72,1.72-.17-1.29-.43-1.55-1.72-1.72,1.29-.17,1.55-.43,1.72-1.72M2.15,5.5c-.19,1.8-.35,1.96-2.15,2.15,1.8.19,1.96.35,2.15,2.15.19-1.8.35-1.96,2.15-2.15-1.8-.19-1.96-.35-2.15-2.15h0Z"/>
      </g>
    </g>
  </g>
</svg>