<?xml version="1.0" encoding="UTF-8"?>
<svg id="_レイヤー_2" data-name="レイヤー 2" xmlns="http://www.w3.org/2000/svg" viewBox="0 0 5.3 5.7">
  <defs>
    <style>
      .cls-1 {
        fill: #fffc80;
      }
    </style>
  </defs>
  <g id="_実データ" data-name="実データ">
    <g>
      <g>
        <path class="cls-1" d="M2.1,3.97C1.92,2.41,1.7,2.26,0,2.07,1.78,1.93,1.93,1.78,2.12,0c.14,1.77.3,1.93,2.07,2.12-1.7.13-1.91.29-2.1,1.85Z"/>
        <path d="M2.1.43c.17,1.25.42,1.51,1.67,1.67-1.25.17-1.51.42-1.67,1.67-.17-1.25-.42-1.51-1.67-1.67,1.25-.17,1.51-.42,1.67-1.67M2.1,0c-.19,1.76-.34,1.91-2.1,2.1,1.76.19,1.91.34,2.1,2.1.19-1.76.34-1.91,2.1-2.1-1.76-.19-1.91-.34-2.1-2.1h0Z"/>
      </g>
      <g>
        <path class="cls-1" d="M3.95,5.59c-.12-1.03-.25-1.13-1.35-1.25,1.14-.1,1.24-.2,1.36-1.34.1,1.14.2,1.24,1.34,1.36-1.1.09-1.23.19-1.35,1.22Z"/>
        <path d="M3.95,3.22c.11.88.25,1.02,1.13,1.13-.88.11-1.02.25-1.13,1.13-.11-.88-.25-1.02-1.13-1.13.88-.11,1.02-.25,1.13-1.13M3.95,3c-.12,1.13-.22,1.23-1.35,1.35,1.13.12,1.23.22,1.35,1.35.12-1.13.22-1.23,1.35-1.35-1.13-.12-1.23-.22-1.35-1.35h0Z"/>
      </g>
    </g>
  </g>
</svg>