<?xml version="1.0" encoding="UTF-8"?>
<svg id="_レイヤー_2" data-name="レイヤー 2" xmlns="http://www.w3.org/2000/svg" viewBox="0 0 9.3 7.1">
  <defs>
    <style>
      .cls-1 {
        fill: #fef400;
      }
    </style>
  </defs>
  <g id="_実データ" data-name="実データ">
    <g>
      <g>
        <path class="cls-1" d="M2.15,6.87c-.19-1.61-.41-1.76-2.15-1.95,1.82-.15,1.98-.31,2.17-2.12.15,1.81.31,1.98,2.12,2.17-1.74.14-1.96.29-2.15,1.9Z"/>
        <path d="M2.15,3.23c.17,1.29.43,1.55,1.72,1.72-1.29.17-1.55.43-1.72,1.72-.17-1.29-.43-1.55-1.72-1.72,1.29-.17,1.55-.43,1.72-1.72M2.15,2.8c-.19,1.8-.35,1.96-2.15,2.15,1.8.19,1.96.35,2.15,2.15.19-1.8.35-1.96,2.15-2.15-1.8-.19-1.96-.35-2.15-2.15h0Z"/>
      </g>
      <g>
        <path class="cls-1" d="M7.15,4.07c-.19-1.61-.41-1.76-2.15-1.95,1.82-.15,1.98-.31,2.17-2.12.15,1.81.31,1.98,2.12,2.17-1.74.14-1.96.29-2.15,1.9Z"/>
        <path d="M7.15.43c.17,1.29.43,1.55,1.72,1.72-1.29.17-1.55.43-1.72,1.72-.17-1.29-.43-1.55-1.72-1.72,1.29-.17,1.55-.43,1.72-1.72M7.15,0c-.19,1.8-.35,1.96-2.15,2.15,1.8.19,1.96.35,2.15,2.15.19-1.8.35-1.96,2.15-2.15-1.8-.19-1.96-.35-2.15-2.15h0Z"/>
      </g>
    </g>
  </g>
</svg>