<?xml version="1.0" encoding="UTF-8"?>
<svg id="_レイヤー_2" data-name="レイヤー 2" xmlns="http://www.w3.org/2000/svg" viewBox="0 0 16.5 16.5">
  <defs>
    <style>
      .cls-1 {
        fill: #fffc80;
      }
    </style>
  </defs>
  <g id="_実デザイン" data-name="実デザイン">
    <g>
      <path class="cls-1" d="M8.25,16.04C7.52,9.54,6.78,8.93,0,8.2,6.93,7.56,7.55,6.94,8.3,0c.64,6.93,1.26,7.55,8.2,8.29-6.78.63-7.52,1.24-8.25,7.74Z"/>
      <path d="M8.25.9c.68,5.85,1.5,6.67,7.35,7.35-5.85.68-6.67,1.5-7.35,7.35-.68-5.85-1.5-6.67-7.35-7.35,5.85-.68,6.67-1.5,7.35-7.35M8.25,0c-.74,6.91-1.34,7.51-8.25,8.25,6.91.74,7.51,1.34,8.25,8.25.74-6.91,1.34-7.51,8.25-8.25-6.91-.74-7.51-1.34-8.25-8.25h0Z"/>
    </g>
  </g>
</svg>