<?xml version="1.0" encoding="UTF-8"?>
<svg id="_レイヤー_2" data-name="レイヤー 2" xmlns="http://www.w3.org/2000/svg" viewBox="0 0 18.5 18.5">
  <defs>
    <style>
      .cls-1 {
        fill: #fffc80;
      }
    </style>
  </defs>
  <g id="_実デザイン" data-name="実デザイン">
    <g>
      <polygon class="cls-1" points="6.84 15.08 2.83 15.67 3.42 11.66 .17 9.25 3.42 6.84 2.83 2.83 6.84 3.42 9.25 .17 11.66 3.42 15.67 2.83 15.08 6.84 18.33 9.25 15.08 11.66 15.67 15.67 11.66 15.08 9.25 18.33 6.84 15.08"/>
      <path d="M9.25.34l2.3,3.1.07.1.12-.02,3.82-.56-.56,3.82-.02.12.1.07,3.1,2.3-3.1,2.3-.1.07.02.12.56,3.82-3.82-.56-.12-.02-.07.1-2.3,3.1-2.3-3.1-.07-.1-.12.02-3.82.56.56-3.82.02-.12-.1-.07L.34,9.25l3.1-2.3.1-.07-.02-.12-.56-3.82,3.82.56.12.02.07-.1L9.25.34M9.25,0l-2.46,3.31-4.08-.6.6,4.08-3.31,2.46,3.31,2.46-.6,4.08,4.08-.6,2.46,3.31,2.46-3.31,4.08.6-.6-4.08,3.31-2.46-3.31-2.46.6-4.08-4.08.6-2.46-3.31h0Z"/>
    </g>
  </g>
</svg>