<?xml version="1.0" encoding="UTF-8"?>
<svg id="_レイヤー_2" data-name="レイヤー 2" xmlns="http://www.w3.org/2000/svg" viewBox="0 0 8.9 6.5">
  <defs>
    <style>
      .cls-1 {
        fill: #fffc80;
      }
    </style>
  </defs>
  <g id="_実データ" data-name="実データ">
    <g>
      <g>
        <polygon class="cls-1" points="1.22 2.44 .44 2.64 .7 1.95 .01 1.53 .68 1.23 .49 .44 1.17 .71 1.59 .01 1.88 .68 2.66 .49 2.4 1.18 3.09 1.6 2.42 1.9 2.61 2.69 1.93 2.42 1.55 3.05 1.22 2.44"/>
        <path d="M1.56.11l.3.59.02.04h.04s.66-.19.66-.19l-.2.63v.04s.02.02.02.02l.6.35-.59.3-.04.02v.04s.19.67.19.67l-.62-.21h-.04s-.02.02-.02.02l-.33.58-.31-.57-.02-.03h-.04s-.66.19-.66.19l.2-.63v-.04s-.02-.02-.02-.02L.1,1.55l.59-.3.04-.02v-.04s-.19-.67-.19-.67l.62.21h.04s.02-.02.02-.02L1.56.11M1.57,0l-.39.68-.71-.24.2.76-.67.34.68.39-.23.72.75-.2.35.64.37-.65.71.24-.2-.76.67-.34-.68-.39.23-.72-.75.2-.34-.67h0Z"/>
      </g>
      <g>
        <polygon class="cls-1" points="5.36 5.28 3.92 5.65 4.39 4.34 3.11 3.57 4.36 2.98 4 1.53 5.29 2 6.05 .71 6.64 1.97 8.08 1.6 7.61 2.91 8.89 3.68 7.64 4.27 8 5.73 6.71 5.25 6 6.45 5.36 5.28"/>
        <path d="M6.03.81l.59,1.18.02.04h.04s1.32-.37,1.32-.37l-.41,1.25v.04s.02.02.02.02l1.19.69-1.17.59-.04.02v.04s.36,1.34.36,1.34l-1.24-.41h-.04s-.02.02-.02.02l-.66,1.14-.62-1.13-.02-.03h-.04s-1.32.37-1.32.37l.41-1.25v-.04s-.02-.02-.02-.02l-1.19-.69,1.17-.59.04-.02v-.04s-.36-1.34-.36-1.34l1.24.41h.04s.02-.02.02-.02l.68-1.2M6.03.7l-.73,1.28-1.33-.44.38,1.43-1.25.64,1.27.74-.44,1.34,1.41-.38.66,1.21.7-1.22,1.33.44-.38-1.42,1.25-.64-1.27-.74.44-1.34-1.41.38-.63-1.26h0Z"/>
      </g>
    </g>
  </g>
</svg>